<?xml version="1.0" encoding="iso-8859-1"?>
<!-- Generator: Adobe Illustrator 19.0.0, SVG Export Plug-In . SVG Version: 6.00 Build 0)  -->
<svg xmlns="http://www.w3.org/2000/svg" xmlns:xlink="http://www.w3.org/1999/xlink" version="1.1" id="Layer_1" x="0px" y="0px" viewBox="0 0 512 512" style="enable-background:new 0 0 512 512;" xml:space="preserve">
<g>
	<polyline style="fill:#F4B846;" points="424.11,130.133 256.002,8.084 8.084,188.074 116.712,188.074 136.579,126.352    328.335,188.074 503.916,188.074 444.342,144.822  "/>
	<polygon style="fill:#F4B846;" points="328.335,188.074 449.983,227.23 256.002,368.061 96.135,251.999 116.712,188.074    8.084,188.074 8.084,503.916 503.916,503.916 503.916,188.074  "/>
</g>
<g style="opacity:0.1;">
	<rect x="8.084" y="188.071" style="fill:#231F20;" width="25.246" height="315.845"/>
</g>
<g>
	<polygon style="fill:#DD8536;" points="116.712,188.074 8.084,188.074 256.002,368.061 96.135,251.999  "/>
	<polygon style="fill:#DD8536;" points="328.335,188.074 449.983,227.23 256.002,368.061 503.916,188.074  "/>
</g>
<polygon style="fill:#6AC6D8;" points="96.135,251.999 256.002,368.061 449.983,227.23 136.579,126.352 "/>
<g>
	<path style="fill:#231F20;" d="M512,188.098v-0.024v-0.014c0-0.029-0.004-0.057-0.004-0.086c-0.004-0.343-0.035-0.678-0.08-1.009   c-0.008-0.051-0.008-0.101-0.015-0.153c-0.006-0.042-0.019-0.083-0.027-0.125c-0.065-0.372-0.149-0.736-0.262-1.089   c0,0-0.003-0.014-0.005-0.02c-0.007-0.018-0.016-0.034-0.022-0.053c-0.115-0.348-0.257-0.683-0.416-1.008   c-0.018-0.038-0.031-0.078-0.051-0.114c-0.012-0.023-0.026-0.045-0.038-0.068c-0.167-0.319-0.356-0.625-0.563-0.917   c-0.022-0.03-0.04-0.063-0.061-0.094c-0.032-0.044-0.07-0.083-0.102-0.126c-0.21-0.277-0.432-0.543-0.676-0.791   c-0.013-0.013-0.024-0.027-0.036-0.04c-0.005-0.005-0.01-0.01-0.015-0.015c-0.01-0.01-0.02-0.018-0.03-0.028   c-0.259-0.255-0.54-0.488-0.831-0.708c-0.035-0.026-0.064-0.058-0.098-0.083l-0.001-0.001l-59.575-43.253   c-3.613-2.623-8.668-1.823-11.292,1.793c-2.624,3.613-1.819,8.668,1.793,11.291l39.429,28.627H329.606l-190.55-61.333   c-0.53-0.17-1.067-0.283-1.601-0.342c-3.736-0.41-7.375,1.842-8.573,5.561L110.82,179.99H32.98L256.002,18.075l163.358,118.6   c3.612,2.62,8.666,1.822,11.292-1.793c2.624-3.613,1.819-8.668-1.793-11.292L260.751,1.542c-2.832-2.057-6.668-2.057-9.499,0   L3.335,181.533l-0.001,0.001c-0.034,0.025-0.064,0.057-0.098,0.083c-0.291,0.219-0.571,0.452-0.831,0.708   c-0.01,0.01-0.02,0.018-0.03,0.028c-0.005,0.005-0.01,0.01-0.014,0.015c-0.014,0.014-0.025,0.028-0.039,0.042   c-0.243,0.247-0.465,0.513-0.675,0.789c-0.032,0.043-0.07,0.082-0.101,0.125c-0.022,0.03-0.04,0.063-0.061,0.094   c-0.207,0.292-0.396,0.598-0.563,0.917c-0.012,0.023-0.026,0.045-0.038,0.068c-0.019,0.038-0.032,0.077-0.051,0.114   c-0.16,0.324-0.301,0.66-0.416,1.007c-0.006,0.018-0.016,0.035-0.023,0.053c-0.002,0.006-0.003,0.014-0.005,0.02   c-0.113,0.352-0.198,0.717-0.263,1.09c-0.008,0.042-0.019,0.082-0.026,0.124c-0.009,0.051-0.009,0.102-0.016,0.153   c-0.045,0.331-0.075,0.666-0.08,1.009c0,0.029-0.004,0.057-0.004,0.086l0,0.015v0.024c0,0.005,0,0.01,0,0.015v315.803   c0,0.044,0.005,0.087,0.006,0.132c0.002,0.147,0.012,0.292,0.023,0.439c0.009,0.123,0.016,0.246,0.03,0.368   c0.016,0.136,0.039,0.271,0.061,0.405c0.022,0.128,0.041,0.258,0.069,0.384c0.027,0.125,0.063,0.249,0.096,0.373   c0.036,0.132,0.068,0.263,0.11,0.391c0.039,0.119,0.085,0.235,0.128,0.352c0.049,0.129,0.096,0.26,0.151,0.385   c0.049,0.112,0.106,0.221,0.16,0.331c0.063,0.127,0.124,0.255,0.193,0.378c0.057,0.102,0.122,0.203,0.184,0.303   c0.078,0.126,0.156,0.252,0.24,0.374c0.065,0.093,0.135,0.181,0.204,0.272c0.095,0.124,0.19,0.248,0.291,0.366   c0.027,0.031,0.049,0.065,0.077,0.096c0.045,0.051,0.095,0.094,0.141,0.143c0.119,0.128,0.24,0.252,0.366,0.373   c0.084,0.08,0.17,0.157,0.257,0.234c0.12,0.105,0.244,0.204,0.37,0.302c0.096,0.074,0.192,0.148,0.291,0.218   c0.127,0.089,0.26,0.172,0.392,0.255c0.1,0.061,0.198,0.126,0.301,0.183c0.148,0.083,0.3,0.156,0.453,0.23   c0.092,0.043,0.181,0.092,0.274,0.132c0.185,0.08,0.376,0.149,0.567,0.216c0.065,0.023,0.128,0.05,0.194,0.071   c0.245,0.078,0.494,0.143,0.748,0.198c0.015,0.003,0.03,0.009,0.045,0.012C6.96,511.94,7.515,512,8.084,512h495.832   c0.57,0,1.125-0.06,1.661-0.172c0.015-0.003,0.03-0.009,0.045-0.012c0.254-0.055,0.503-0.12,0.748-0.198   c0.066-0.02,0.128-0.049,0.194-0.071c0.192-0.067,0.383-0.136,0.568-0.216c0.093-0.04,0.182-0.087,0.273-0.132   c0.153-0.073,0.306-0.148,0.454-0.23c0.102-0.057,0.202-0.121,0.302-0.183c0.133-0.082,0.265-0.165,0.392-0.254   c0.099-0.069,0.195-0.143,0.291-0.217c0.126-0.097,0.25-0.197,0.371-0.302c0.087-0.075,0.172-0.154,0.258-0.234   c0.126-0.12,0.247-0.244,0.365-0.372c0.046-0.05,0.097-0.093,0.141-0.143c0.027-0.031,0.05-0.065,0.077-0.096   c0.101-0.119,0.196-0.24,0.29-0.364c0.069-0.092,0.14-0.181,0.205-0.274c0.084-0.121,0.162-0.246,0.239-0.372   c0.063-0.101,0.128-0.203,0.185-0.305c0.069-0.123,0.13-0.251,0.192-0.378c0.054-0.11,0.11-0.219,0.16-0.331   c0.055-0.127,0.102-0.258,0.151-0.388c0.044-0.116,0.089-0.232,0.128-0.35c0.042-0.128,0.074-0.26,0.11-0.391   c0.033-0.124,0.069-0.248,0.096-0.373c0.028-0.127,0.047-0.257,0.069-0.385c0.023-0.134,0.045-0.268,0.061-0.403   c0.014-0.122,0.022-0.247,0.03-0.371c0.01-0.146,0.019-0.29,0.022-0.435c0.001-0.044,0.006-0.087,0.006-0.132V188.113   C512,188.108,512,188.103,512,188.098z M16.168,203.933l175.396,127.336L16.168,486.004V203.933z M325.858,195.77l106.486,34.276   l-37.068,26.912L239.02,206.661c-4.246-1.362-8.804,0.968-10.173,5.219c-1.368,4.249,0.968,8.804,5.219,10.173l145.001,46.674   l-19.811,14.382l-186.926-60.168c-4.248-1.364-8.804,0.968-10.173,5.219c-1.368,4.249,0.968,8.804,5.219,10.173l175.671,56.544   l-19.81,14.381l-24.31-7.826c-4.248-1.366-8.804,0.968-10.173,5.219c-1.368,4.249,0.968,8.804,5.219,10.173l13.053,4.202   l-1.423,1.034l-49.601,36.011L105.625,248.899l18.782-58.348l17.39-54.026L325.858,195.77z M204.971,341.004l46.282,33.6   c0.035,0.025,0.072,0.041,0.107,0.066c0.314,0.22,0.637,0.424,0.974,0.595c0.009,0.004,0.017,0.011,0.026,0.015   c0.004,0.002,0.008,0.004,0.012,0.006c0.34,0.17,0.692,0.309,1.05,0.43c0.115,0.039,0.232,0.07,0.349,0.103   c0.252,0.072,0.507,0.133,0.764,0.18c0.123,0.023,0.244,0.047,0.366,0.064c0.349,0.049,0.702,0.079,1.055,0.081   c0.013,0,0.026,0.003,0.039,0.003c0.002,0,0.004-0.001,0.006-0.001c0.002,0,0.004,0.001,0.006,0.001   c0.299,0,0.597-0.019,0.896-0.053c0.061-0.008,0.121-0.021,0.182-0.029c0.014-0.002,0.027-0.004,0.041-0.007   c0.082-0.012,0.164-0.025,0.246-0.039c0.14-0.024,0.279-0.046,0.418-0.078c0.088-0.019,0.174-0.047,0.261-0.07   c0.135-0.036,0.27-0.066,0.403-0.108c0.006-0.002,0.013-0.003,0.019-0.005c0.058-0.018,0.114-0.043,0.172-0.063   c0.112-0.039,0.221-0.085,0.332-0.128c0.111-0.044,0.223-0.08,0.332-0.128c0.01-0.004,0.019-0.009,0.029-0.014   c0.038-0.017,0.075-0.033,0.112-0.052c0.024-0.012,0.046-0.028,0.07-0.039c0.039-0.018,0.079-0.035,0.116-0.054   c0.013-0.006,0.024-0.014,0.037-0.02c0.198-0.101,0.39-0.216,0.58-0.333c0.039-0.024,0.08-0.041,0.119-0.066   c0.011-0.006,0.019-0.013,0.029-0.019c0.022-0.014,0.042-0.027,0.063-0.041c0.027-0.018,0.054-0.037,0.081-0.054   c0.069-0.047,0.136-0.095,0.204-0.143l46.279-33.599l175.503,154.826H29.469L204.971,341.004z M320.438,331.272l80.981-58.793   c0.002-0.002,0.004-0.003,0.006-0.004l53.308-38.702c0.016-0.012,0.03-0.023,0.046-0.033l41.052-29.806v282.07L320.438,331.272z    M479.021,196.159l-30.466,22.118l-68.717-22.118H479.021z M105.616,196.159l-10.908,33.889l-2.851,8.855L32.98,196.159H105.616z"/>
	<path style="fill:#231F20;" d="M180.824,204.869l29.455,9.48c0.824,0.264,1.658,0.39,2.479,0.39c3.416,0,6.59-2.183,7.694-5.609   c1.368-4.25-0.968-8.804-5.219-10.173l-29.455-9.48c-4.247-1.367-8.804,0.969-10.173,5.219   C174.238,198.947,176.574,203.5,180.824,204.869z"/>
	<path style="fill:#231F20;" d="M153.926,271.748l116.657,37.548c0.824,0.264,1.658,0.39,2.479,0.39c3.416,0,6.59-2.183,7.694-5.609   c1.368-4.249-0.968-8.804-5.219-10.173L158.88,256.356c-4.247-1.362-8.804,0.968-10.173,5.219   C147.34,265.825,149.675,270.379,153.926,271.748z"/>
</g>
<g style="opacity:0.1;">
	
		<rect x="122.052" y="134.241" transform="matrix(-0.9524 -0.305 0.305 -0.9524 194.7402 426.4122)" style="fill:#231F20;" width="17.247" height="127.51"/>
</g>
<g>
</g>
<g>
</g>
<g>
</g>
<g>
</g>
<g>
</g>
<g>
</g>
<g>
</g>
<g>
</g>
<g>
</g>
<g>
</g>
<g>
</g>
<g>
</g>
<g>
</g>
<g>
</g>
<g>
</g>
</svg>
